/* XPM */
static char * close_xpm[] = {
"22 22 12 1",
" 	c None",
".	c #712D2D",
"+	c #E25A5A",
"@	c #552222",
"#	c #23C93F",
"$	c #C64F4F",
"%	c #1C0B0B",
"&	c #AA4444",
"*	c #8D3838",
"=	c #000000",
"-	c #FF6666",
";	c #381616",
".+@@@@@@@@@@@@@@@@@@+.",
"++##################++",
"@##$##############$##@",
"@#$%##############%$#@",
"@###.&##########&.###@",
"@###&.@@@@@@@@@@.&###@",
"@####@*$======$*@####@",
"@####@$-======-$@####@",
"@####@==-*==*-==@####@",
"@####@==*-&&-*==@####@",
"@####@==%$--$%==@####@",
"@####@==@-##-@==@####@",
"@####@=;-$&&$-;=@####@",
"@####@;+@%==%@+;@####@",
"@###+.+;======;+.+###@",
"@###&&+;======;+&&###@",
"@##$$############$$##@",
"@#$%$*##########*$%$#@",
"*####################*",
"$@##################@$",
"$####################$",
"*$##################$*"};
