/* XPM */
static char * close_xpm[] = {
"22 22 28 1",
" 	c None",
".	c #000000",
"+	c #240000",
"@	c #020000",
"#	c #FF0000",
"$	c #5F0000",
"%	c #0D0000",
"&	c #F00000",
"*	c #010000",
"=	c #FE0000",
"-	c #180000",
";	c #170000",
">	c #0C0000",
",	c #930000",
"'	c #030000",
")	c #F30000",
"!	c #690000",
"~	c #110000",
"{	c #0E0000",
"]	c #D90000",
"^	c #CC0000",
"/	c #1D0000",
"(	c #210000",
"_	c #AD0000",
":	c #BE0000",
"<	c #040000",
"[	c #080000",
"}	c #0A0000",
"......................",
"......................",
"......................",
"......................",
"......................",
"......................",
"......+..@............",
".......#$.....#.......",
"......%.&*...#........",
".........#..#.........",
"..........##..........",
".........=..#..-......",
"......;>,'...)!~{.....",
".......]^/...(_:......",
"......<[.*.....}<.....",
"......................",
"......................",
"......................",
"......................",
"......................",
"......................",
"......................"};
