/* XPM */
static char * min_pressed_xpm[] = {
"22 22 3 1",
" 	c None",
".	c #323B46",
"+	c #23C93F",
"......................",
"......................",
"......................",
"......................",
"......................",
"......................",
"......................",
"......................",
"......................",
"......................",
"...++++++++++++++++...",
"...++++++++++++++++...",
"...++++++++++++++++...",
"...++++++++++++++++...",
"......................",
"......................",
"......................",
"......................",
"......................",
"......................",
"......................",
"......................"};
