/* XPM */
static char * close_unfocus_xpm[] = {
"22 22 2 1",
" 	c None",
".	c #505050",
"                      ",
"                      ",
"        .....         ",
"     ...........      ",
"    .............     ",
"   ...............    ",
"  .................   ",
" ...................  ",
" ...................  ",
"..................... ",
"..................... ",
"..................... ",
"..................... ",
"..................... ",
" ...................  ",
" ...................  ",
"  .................   ",
"   ...............    ",
"    .............     ",
"     ...........      ",
"        .....         ",
"                      "};
