/* XPM */
static char * close_pressed_xpm[] = {
"22 22 10 1",
" 	c None",
".	c #759C79",
"+	c #7DAC81",
"@	c #85BE8A",
"#	c #89C78F",
"$	c #8AC990",
"%	c #759A78",
"&	c #769C79",
"*	c #7AA67E",
"=	c #83BB89",
"                      ",
"                      ",
"       .+@#@+.        ",
"     +$$$$$$$$$+      ",
"   %$$$$$$$$$$$$$%    ",
"  &$$$$$$$$$$$$$$$&   ",
"  $$$$$$$$$$$$$$$$$   ",
" @$$$$$$$$$$$$$$$$$@  ",
" $$$$$$$$$$$$$$$$$$$  ",
"*$$$$$$$$$$$$$$$$$$$* ",
"=$$$$$$$$$$$$$$$$$$$= ",
"#$$$$$$$$$$$$$$$$$$$# ",
"=$$$$$$$$$$$$$$$$$$$= ",
"*$$$$$$$$$$$$$$$$$$$* ",
" $$$$$$$$$$$$$$$$$$$  ",
" @$$$$$$$$$$$$$$$$$@  ",
"  $$$$$$$$$$$$$$$$$   ",
"  &$$$$$$$$$$$$$$$&   ",
"   %$$$$$$$$$$$$$%    ",
"     +$$$$$$$$$+      ",
"       .+@#@+.        ",
"                      "};
