/* XPM */
static char * max_xpm[] = {
"22 22 2 1",
" 	c None",
".	c #575757",
"                      ",
"                      ",
"                      ",
"                      ",
"     ...........      ",
"     ...........      ",
"     ...........      ",
"     ...........      ",
"     ...........      ",
"     ...........      ",
"     ...........      ",
"     ...........      ",
"     ...........      ",
"     ...........      ",
"     ...........      ",
"     ...........      ",
"                      ",
"                      ",
"                      ",
"                      ",
"                      ",
"                      "};
