/* XPM */
static char * max_pressed_xpm[] = {
"22 22 2 1",
" 	c None",
".	c #8AC990",
"                      ",
"                      ",
"                      ",
"                      ",
"     ...........      ",
"     ...........      ",
"     ...........      ",
"     ...........      ",
"     ...........      ",
"     ...........      ",
"     ...........      ",
"     ...........      ",
"     ...........      ",
"     ...........      ",
"     ...........      ",
"     ...........      ",
"                      ",
"                      ",
"                      ",
"                      ",
"                      ",
"                      "};
