/* XPM */
static char * min_unfocus_xpm[] = {
"22 22 2 1",
" 	c None",
".	c #505050",
"                      ",
"                      ",
"                      ",
"                      ",
"                      ",
"                      ",
"                      ",
"                      ",
"                      ",
"                      ",
"   ................   ",
"   ................   ",
"   ................   ",
"   ................   ",
"                      ",
"                      ",
"                      ",
"                      ",
"                      ",
"                      ",
"                      ",
"                      "};
