/* XPM */
static char * close_pressed_xpm[] = {
"22 22 181 2",
"  	c None",
". 	c #1D1300",
"+ 	c #50000F",
"@ 	c #3B1F00",
"# 	c #3D2000",
"$ 	c #3F2100",
"% 	c #402100",
"& 	c #412200",
"* 	c #422300",
"= 	c #432200",
"- 	c #442300",
"; 	c #452400",
"> 	c #462500",
", 	c #482600",
"' 	c #492600",
") 	c #4A2700",
"! 	c #4B2700",
"~ 	c #4C2800",
"{ 	c #4D2900",
"] 	c #3D000E",
"^ 	c #331E00",
"/ 	c #51000E",
"( 	c #51000F",
"_ 	c #6E5C00",
": 	c #705B00",
"< 	c #715B00",
"[ 	c #725A00",
"} 	c #735900",
"| 	c #745900",
"1 	c #755900",
"2 	c #765700",
"3 	c #775700",
"4 	c #785700",
"5 	c #795600",
"6 	c #7A5500",
"7 	c #7B5500",
"8 	c #7C5500",
"9 	c #7D5400",
"0 	c #7D5300",
"a 	c #7F5200",
"b 	c #3C000F",
"c 	c #3A1E00",
"d 	c #6D5D00",
"e 	c #6E5D00",
"f 	c #320004",
"g 	c #755800",
"h 	c #765800",
"i 	c #7A5600",
"j 	c #7B5400",
"k 	c #7C5400",
"l 	c #230004",
"m 	c #805200",
"n 	c #4E2900",
"o 	c #391D00",
"p 	c #6C5D00",
"q 	c #330003",
"r 	c #763700",
"s 	c #745800",
"t 	c #785600",
"u 	c #853F00",
"v 	c #220003",
"w 	c #4F2900",
"x 	c #6F5C00",
"y 	c #221500",
"z 	c #140000",
"A 	c #775800",
"B 	c #0A0500",
"C 	c #2E1C00",
"D 	c #7E5300",
"E 	c #7F5300",
"F 	c #391E00",
"G 	c #160000",
"H 	c #231600",
"I 	c #402200",
"J 	c #422200",
"K 	c #442400",
"L 	c #492700",
"M 	c #2D1C00",
"N 	c #080500",
"O 	c #4F2A00",
"P 	c #6F5B00",
"Q 	c #3F2000",
"R 	c #080B00",
"S 	c #2F0003",
"T 	c #974400",
"U 	c #984400",
"V 	c #984500",
"W 	c #994600",
"X 	c #9B4700",
"Y 	c #9C4700",
"Z 	c #280003",
"` 	c #111000",
" .	c #4A2600",
"..	c #7E5400",
"+.	c #805300",
"@.	c #300003",
"#.	c #68001A",
"$.	c #994500",
"%.	c #9A4500",
"&.	c #60001A",
"*.	c #270003",
"=.	c #6E5B00",
"-.	c #944300",
";.	c #954400",
">.	c #67001B",
",.	c #0B0D00",
"'.	c #0D0F00",
").	c #61001A",
"!.	c #9D4800",
"~.	c #9E4800",
"{.	c #4E2A00",
"].	c #3A1D00",
"^.	c #954300",
"/.	c #090C00",
"(.	c #65001A",
"_.	c #0F0100",
":.	c #0E0100",
"<.	c #62001A",
"[.	c #0F0F00",
"}.	c #3E2100",
"|.	c #964300",
"1.	c #7B3900",
"2.	c #2D0004",
"3.	c #64001B",
"4.	c #63001A",
"5.	c #2A0004",
"6.	c #803C00",
"7.	c #6D5C00",
"8.	c #964400",
"9.	c #66001B",
"0.	c #755700",
"a.	c #5D2E00",
"b.	c #100100",
"c.	c #0E0200",
"d.	c #2A0003",
"e.	c #62001B",
"f.	c #643200",
"g.	c #3E2000",
"h.	c #5C2D00",
"i.	c #4B000F",
"j.	c #984600",
"k.	c #7E3B00",
"l.	c #472500",
"m.	c #43000E",
"n.	c #653200",
"o.	c #4E000E",
"p.	c #4C000E",
"q.	c #974500",
"r.	c #9A4600",
"s.	c #9B4600",
"t.	c #42000E",
"u.	c #41000E",
"v.	c #6C5C00",
"w.	c #150000",
"x.	c #4C000F",
"y.	c #5D2D00",
"z.	c #9C4600",
"A.	c #653100",
"B.	c #090500",
"C.	c #310003",
"D.	c #715A00",
"E.	c #725900",
"F.	c #775600",
"G.	c #250003",
"H.	c #340003",
"I.	c #753600",
"J.	c #060B00",
"K.	c #795500",
"L.	c #121100",
"M.	c #240003",
"N.	c #843F00",
"O.	c #230003",
"P.	c #010800",
"Q.	c #7E5200",
"R.	c #171300",
"S.	c #360004",
"T.	c #210003",
"U.	c #795700",
"V.	c #210004",
"W.	c #350003",
"X.	c #161400",
". + @ # # $ % & * = - ; > > , ' ) ! ~ { ] ^ ",
"/ ( _ _ : < [ } | 1 2 3 4 5 6 7 8 9 0 a ] b ",
"c d e f : < [ } | g h 2 3 5 i 7 j k l a m n ",
"o p q r : < [ [ | s h 2 3 t 5 6 j k u v m w ",
"c p _ x y z [ } | s g A 3 5 6 7 B C D E m w ",
"F p _ x G H % I J * - K > > , L M N D E m O ",
"F p _ _ P Q R S T U V W X Y Z `  .9 ..D +.O ",
"c p _ x : Q @.#.T V $.%.X X &.*. .9 D a m w ",
"o p _ =.: $ -.;.>.,.$.%.'.).!.~.L 9 0 E m {.",
"].p e P : $ -.^./.(._.:.<.[.!.!.) 0 D a m O ",
"].p _ _ : }.^.|.1.2.3.4.5.6.Y ~.L 9 9 E m {.",
"].p 7._ P }.^.8.J 9.0.2 4.> Y ~.' 9 ..E a O ",
"F d _ P P }.-.a.9.2.b.c.d.e.f.~.) k 9 D a O ",
"F p d P : g.h.i.J 1.j.W k.l.m.n.) k 0 a m w ",
"o d 7.x o.y p.a.8.q.j.r.s.X n.t.M u.0 a a w ",
"].v.7.=.w.z x.y.T V V W r.z.A.t.B.N 9 a a w ",
"o p e f C.: D.E.| s 0.A F.5 i 6 j G.l E m n ",
"F p H.I.f J.< } | s g A 3 5 K.i L.M.N.O.m n ",
"P.p e _ P : D.[ } g g h 3 5 5 6 k k ..Q.a R.",
"S.c d _ P : D.} } s g 3 F.5 5 6 j 9 9 E { T.",
"S.p 7._ P : D.[ } s g 2 4 U.6 7 7 k 9 E a V.",
"P.W.d _ P D.D.E.} s g 2 3 t 5 7 7 9 0 Q.T.X."};
