/* XPM */
static char * close_xpm[] = {
"22 22 77 1",
" 	c None",
".	c #71512D",
"+	c #E2A55A",
"@	c #553E22",
"#	c #553F22",
"$	c #554022",
"%	c #E2A75A",
"&	c #71552D",
"*	c #3D2304",
"=	c #3D2404",
"-	c #3D2504",
";	c #E2A95A",
">	c #C6934F",
",	c #1C150B",
"'	c #71542D",
")	c #AA7F44",
"!	c #AA7E44",
"~	c #553C22",
"{	c #3D2104",
"]	c #553B22",
"^	c #8D6A38",
"/	c #C6954F",
"(	c #000000",
"_	c #3D2004",
":	c #553822",
"<	c #FFBD66",
"[	c #FFBF66",
"}	c #3D2204",
"|	c #3D1D04",
"1	c #553622",
"2	c #8D6838",
"3	c #3D1C04",
"4	c #553D22",
"5	c #3D1B04",
"6	c #3D1A04",
"7	c #553422",
"8	c #3D1804",
"9	c #553222",
"0	c #3D1604",
"a	c #553022",
"b	c #382916",
"c	c #C6914F",
"d	c #FFB566",
"e	c #382616",
"f	c #3D1504",
"g	c #3D1304",
"h	c #552E22",
"i	c #382A16",
"j	c #1C140B",
"k	c #553A22",
"l	c #E2955A",
"m	c #382416",
"n	c #3D1104",
"o	c #552F22",
"p	c #E28E5A",
"q	c #71452D",
"r	c #E2855A",
"s	c #3D1404",
"t	c #3D1204",
"u	c #382216",
"v	c #E28A5A",
"w	c #AA6344",
"x	c #AA5F44",
"y	c #3D1904",
"z	c #C66B4F",
"A	c #3D1F04",
"B	c #8D4C38",
"C	c #1C100B",
"D	c #C66F4F",
"E	c #553122",
"F	c #8D5438",
"G	c #3D1704",
"H	c #553322",
"I	c #C67B4F",
"J	c #3D1004",
"K	c #C6814F",
"L	c #8D5B38",
".+@@@####$$$$$$$$$##%&",
"++**====-=---=-=-=-=;%",
"@**>===-------=--=>==$",
"@*>,=------=---=-=,>-#",
"@*==')----=----=!'=-*~",
"@===!&$##$$##$$$'!-={]",
"#==--#^/((((((>^#=={_:",
"#=---#/<(((((([>#=}_|1",
"#----#(([^((2[((#{_|31",
"#----#((^[!![2((4_|567",
"$----$((,><<>,((]|3689",
"$--=-$(($<$#<@((:3680a",
"#----$(b[/!!cde(168fgh",
"#=-=-$i%$,=*jklm18fgno",
"$---;&;i--*{_|mpqrsnto",
"$--=));i-*{_|5uvwxnnga",
"#=-//=--*{_|5y80szztga",
"$-/,>2=*{A|568fsBzCDfE",
"^===--*{A|5y80gnttgs0F",
"/$===*{A|5yGfgnnggffHI",
"/--=*{A|5y8fgJntgsfG6K",
"2/=*{A|568fsntggsfGyKL"};
