/* XPM */
static char * max_xpm[] = {
"22 22 11 1",
" 	c None",
".	c #3D2104",
"+	c #3D2204",
"@	c #3D2304",
"#	c #3D2404",
"$	c #3D2504",
"%	c #FF8800",
"&	c #FF8C00",
"*	c #FF9000",
"=	c #FF9500",
"-	c #FF8400",
"......+@@@######$#$$$$",
"....+.++@@@####$$$$#$$",
".....++@@@@####$$#$$$#",
"....+.++@@#@##$$$$$$$$",
".....%%&%&&&****$$$$$#",
".....%%%%&*****=$#$$$$",
"....+%%%&&&*****$$$$$$",
".....-%%%&&&***=$$$$$$",
"....+%%%&%&&**=*$$$#$#",
".....-%%&&*&***=$$$#$$",
"....+%%%&&&*****$$$$$$",
".....%%&&&&&***=$#$#$$",
"....+%%%&&&****=$$$$$$",
".....-%%&&&*=**=$$$$$$",
".....%%%&&&&****$$$#$$",
".....-%%%&&****=$$$#$$",
".....++@@@@####$$$$$$$",
".....++@@@@#####$#$#$$",
"....++++@@#####$$$$$$$",
"......+++@#@###$$#$$$$",
"....++++@@@####$$$$$$#",
".....++@+@@@####$$$$$#"};
