/* XPM */
static char * max_pressed_xpm[] = {
"22 22 9 1",
" 	c None",
".	c #590900",
"+	c #590A00",
"@	c #5A0A00",
"#	c #5A0900",
"$	c #685900",
"%	c #695900",
"&	c #685800",
"*	c #695800",
"..+@##@..#....#..#+@..",
"#.##....@.+.#@.#@..#.#",
"+..##..#.....#...+..+.",
".+...#...@....##....#+",
"@....$$%%&*$$$$&+.#..+",
".+...%&$$%&$%$$&..@...",
"+.@.+$%$&$$&$&%$....#.",
".....&*$%$*&%$$$...@..",
"+..#+&$$$$$%%&%$..+.#.",
"##...%$&$$%&&$%&..#@+.",
"...+.$%$$%$$*$$%..+...",
"++..#%$&*$$$$%$%###...",
"..+#+%$$$$$*%&&*++.@..",
"@....$$%&&$%&$&$.+....",
".@...%$$$*$*$$&$.#.#+.",
"+..+.$$%%$*$$%$&#...+#",
".+....+.....#...#.++++",
".+...+....#.+++#.++##+",
"++...+....+...#.+@+@.+",
".#+.#..#@++.#+.+++@.#.",
"##.#+#..#..##...+.....",
".#.#..@.#+.#.@..++#..#"};
