/* XPM */
static char * min_xpm[] = {
"22 22 12 1",
" 	c None",
".	c #411A02",
"+	c #401A02",
"@	c #3E1A02",
"#	c #3D1A02",
"$	c #3C1A02",
"%	c #3B1A02",
"&	c #3A1A02",
"*	c #391A02",
"=	c #3F1A02",
"-	c #421A02",
";	c #FF8C00",
".+@@@#$%%&*&%%$#@==..-",
"++=@@#$%%&*&%%#@@==+.-",
"++=@@#$%%&&&%%$@@@++.-",
"++=@@$%%%&&&%$$#@@++.-",
".+@@@$%%&&&%%%$#@==+--",
".+=@@#%%%&*&%%#@@@++.-",
".==@##$%%&&%%$$#@==..-",
".+@@##$%%&*%%$#@@@+..-",
".+@@#$$%%&&%%%#@@=++.-",
"++=@#$$%&&&%%%$@@=+.--",
".+=;;;;;;;;;;;;;;;;..-",
"+==;;;;;;;;;;;;;;;;.--",
".==;;;;;;;;;;;;;;;;.--",
"+=@;;;;;;;;;;;;;;;;..-",
"++@@@$$%%*&&%%#@@=+.--",
"+==@##$%%*&%%$#@@==.--",
".=@@#$$%&&&%%$#@@=+.--",
"+=@@#$$%&&%%%$#@@=+.--",
"+=@@#$$%&*%%%$#@@=+.--",
"+=@@#$%%&*%%%$#@@=+.--",
"+=@@##$%&&&%%$#@@=+.--",
"++@@##%%&*&%%$#@==+.--"};
