/* XPM */
static char * min_pressed_xpm[] = {
"22 22 16 1",
" 	c None",
".	c #5A1F15",
"+	c #5B1F15",
"@	c #5A2015",
"#	c #5A1F14",
"$	c #5B2015",
"%	c #5B1F14",
"&	c #5A2014",
"*	c #5B2014",
"=	c #696F0E",
"-	c #6A6F0E",
";	c #6A6E0E",
">	c #696E0E",
",	c #696F0D",
"'	c #696E0D",
")	c #6A6F0D",
"..+@..+.@.#.@.....+@+.",
"$.+.$@..$$@@.$++..@..$",
"@+.+..#.@.@...$.+.++@$",
".#....+.+$.%.#.$.#+..#",
".+&.$.+@@+..@.+@.#++$.",
"$.+@.@@+.......%*.+@++",
"@+.@@$@..#+++.+.@.@...",
".+++.+@+&.@#.+*.++..+.",
".@.++@&+..#+@#+@..#..#",
"..@.@.@+.$..@+.+..+.+@",
"...=-;=>;>=>=====,;...",
"..$===>-'======,,;=++@",
"..@=>==--======)=>=.@@",
"+..=>>;---=-==-===-.@.",
".+...++@..@.#.%@...+.#",
"..@.+@%+$+.@.#$@@.+.@#",
"@...#..@&...@.+@....+.",
".@.@$$@..$.++..$..#.+.",
"@*.+...%+%.@.$...&.+..",
"@+.+#.$..$@..#.+....+.",
"@$....$.@$.#.&@.@...@$",
"+.@+#.....$.....+@.#@."};
