/* XPM */
static char * min_xpm[] = {
"22 22 3 1",
" 	c None",
".	c #04253D",
"+	c #FF0000",
"......................",
"......................",
"......................",
"......................",
"......................",
"......................",
"......................",
"......................",
"......................",
"......................",
"...++++++++++++++++...",
"...++++++++++++++++...",
"...++++++++++++++++...",
"...++++++++++++++++...",
"......................",
"......................",
"......................",
"......................",
"......................",
"......................",
"......................",
"......................"};
