/* XPM */
static char * bar_alt_xpm[] = {
"20 20 155 2",
"  	c None",
". 	c #EE7D10",
"+ 	c #EE7D11",
"@ 	c #EF7D11",
"# 	c #EF7E10",
"$ 	c #EF7E11",
"% 	c #EE7E10",
"& 	c #ED7C11",
"* 	c #ED7B11",
"= 	c #ED7B10",
"- 	c #ED7C10",
"; 	c #EC7B11",
"> 	c #EC7B10",
", 	c #EC7A10",
"' 	c #EC7A11",
") 	c #EB7810",
"! 	c #EB7911",
"~ 	c #EB7811",
"{ 	c #EB7710",
"] 	c #EB7711",
"^ 	c #EA7711",
"/ 	c #EA7710",
"( 	c #E97511",
"_ 	c #E97510",
": 	c #E97610",
"< 	c #E97411",
"[ 	c #E87410",
"} 	c #E87411",
"| 	c #E87510",
"1 	c #E87211",
"2 	c #E77210",
"3 	c #E67211",
"4 	c #E77110",
"5 	c #E67110",
"6 	c #E77111",
"7 	c #E67111",
"8 	c #E67210",
"9 	c #E56F11",
"0 	c #E46F10",
"a 	c #E56F10",
"b 	c #E46E11",
"c 	c #E56E11",
"d 	c #E46F11",
"e 	c #E46E10",
"f 	c #E56E10",
"g 	c #E36C11",
"h 	c #E36C10",
"i 	c #E26C10",
"j 	c #E26C11",
"k 	c #E36B10",
"l 	c #E26B11",
"m 	c #E26B10",
"n 	c #E06910",
"o 	c #E16910",
"p 	c #E16911",
"q 	c #E06810",
"r 	c #E16810",
"s 	c #E06911",
"t 	c #E16811",
"u 	c #E06811",
"v 	c #DF6611",
"w 	c #DF6710",
"x 	c #DF6610",
"y 	c #DF6711",
"z 	c #DE6710",
"A 	c #DE6611",
"B 	c #DE6610",
"C 	c #DE6511",
"D 	c #DF6510",
"E 	c #DE6510",
"F 	c #DD6311",
"G 	c #DD6310",
"H 	c #DC6311",
"I 	c #DC6210",
"J 	c #DC6310",
"K 	c #DD6211",
"L 	c #DC6211",
"M 	c #DA6010",
"N 	c #DA6011",
"O 	c #DB6010",
"P 	c #DB6011",
"Q 	c #DA5F11",
"R 	c #DA5F10",
"S 	c #D85D10",
"T 	c #D85D11",
"U 	c #D95D10",
"V 	c #D95D11",
"W 	c #D85C11",
"X 	c #D95C10",
"Y 	c #D85C10",
"Z 	c #D75A11",
"` 	c #D75A10",
" .	c #D75910",
"..	c #D65A10",
"+.	c #D65910",
"@.	c #D65A11",
"#.	c #D65911",
"$.	c #D55911",
"%.	c #D55711",
"&.	c #D55710",
"*.	c #D45711",
"=.	c #D45710",
"-.	c #D55610",
";.	c #D55611",
">.	c #D45610",
",.	c #D45611",
"'.	c #D35611",
").	c #D25411",
"!.	c #D35410",
"~.	c #D25410",
"{.	c #D35411",
"].	c #D25310",
"^.	c #D25311",
"/.	c #D15311",
"(.	c #D05211",
"_.	c #D05110",
":.	c #D05111",
"<.	c #D05011",
"[.	c #D15111",
"}.	c #D05010",
"|.	c #D15010",
"1.	c #CF5011",
"2.	c #CE4E11",
"3.	c #CE4E10",
"4.	c #CF4E11",
"5.	c #CF4E10",
"6.	c #CE4D10",
"7.	c #CD4D10",
"8.	c #CE4D11",
"9.	c #CD4D11",
"0.	c #CC4B10",
"a.	c #CD4B10",
"b.	c #CC4A10",
"c.	c #CC4A11",
"d.	c #CC4B11",
"e.	c #CB4A10",
"f.	c #CB4A11",
"g.	c #CA4810",
"h.	c #CB4810",
"i.	c #CA4711",
"j.	c #CB4811",
"k.	c #CA4811",
"l.	c #C94810",
"m.	c #CA4710",
"n.	c #C94710",
"o.	c #C94711",
"p.	c #C94510",
"q.	c #C84511",
"r.	c #C84410",
"s.	c #C94511",
"t.	c #C84510",
"u.	c #C84411",
"v.	c #C74511",
"w.	c #C74410",
"x.	c #C74411",
". + @ @ # $ % $ @ + $ $ @ + # . % @ @ @ ",
"& * = * = * - = = * ; ; = * = * > , , ' ",
") ! ~ ) ~ ) ) ~ ) ) ~ { ] ) ^ ~ { / / { ",
"( ( _ : : ( _ ( ( _ ( ( _ < [ ( [ _ } | ",
"1 2 2 2 2 2 3 3 2 2 2 2 4 5 4 6 7 8 8 3 ",
"9 9 9 9 0 a 9 a a a a 0 b a b c d e f b ",
"g g g h h h i g j k h k k i h l m l m m ",
"n o o o p p o n p o q r n s o q q s t u ",
"v w x y z v A v A A B C D D C v B E C C ",
"F F F G G F H H G I G I J K I G I I I L ",
"M N O P O M P M N P O N N Q R M R R R R ",
"S T U U S S V W W X Y U S S T S T W W W ",
"Z ` ` `  .....+.Z ..+.Z @.+...+.#.$.+.#.",
"%.%.&.*.%.=.*.-.;.*.=.=.%.>.,.>.>.,.'.'.",
").!.~.).).~.{.).].].).).].^.).^.]./.^./.",
"(._._._.:.<.[.}.|.}.}.}.<.<.}.<.<.<.1.<.",
"2.3.4.2.5.3.4.3.6.3.2.6.2.3.7.8.6.8.8.9.",
"0.a.0.0.0.0.0.b.c.d.b.b.c.0.b.d.e.f.e.e.",
"g.h.i.j.k.h.g.g.g.l.m.k.k.n.n.m.o.n.o.m.",
"p.q.r.s.q.p.r.t.r.u.r.v.t.w.w.u.x.w.w.u."};
