/* XPM */
static char * bar1_xpm[] = {
"20 20 240 2",
"  	c None",
". 	c #FFF721",
"+ 	c #FFF221",
"@ 	c #FEF120",
"# 	c #FEF220",
"$ 	c #FFF120",
"% 	c #FEF020",
"& 	c #FEEF20",
"* 	c #FEEE20",
"= 	c #FEEE1F",
"- 	c #FEED1F",
"; 	c #FEED20",
"> 	c #FEEA1F",
", 	c #FEE91F",
"' 	c #FEE91E",
") 	c #FEE81E",
"! 	c #FEE81F",
"~ 	c #FDE81F",
"{ 	c #FEE71E",
"] 	c #FDE71E",
"^ 	c #FDE71F",
"/ 	c #FEE61E",
"( 	c #FDE61E",
"_ 	c #FEE51E",
": 	c #FDE51E",
"< 	c #FDE41E",
"[ 	c #FCE11D",
"} 	c #FCE11E",
"| 	c #FDE11D",
"1 	c #FCE01D",
"2 	c #FDE01D",
"3 	c #FDE01E",
"4 	c #FCDF1D",
"5 	c #FDDF1D",
"6 	c #FCDE1D",
"7 	c #FDDE1D",
"8 	c #FDDD1D",
"9 	c #FCDD1D",
"0 	c #FDDC1D",
"a 	c #FCDC1D",
"b 	c #FCD91D",
"c 	c #FCD81C",
"d 	c #FCD81D",
"e 	c #FCD71C",
"f 	c #FCD61C",
"g 	c #FBD61D",
"h 	c #FBD51C",
"i 	c #FCD51C",
"j 	c #FCD41C",
"k 	c #FBD31C",
"l 	c #FBD01B",
"m 	c #FBD11B",
"n 	c #FBCF1B",
"o 	c #FBCE1B",
"p 	c #FBCD1A",
"q 	c #FBCE1A",
"r 	c #FACD1A",
"s 	c #FBCD1B",
"t 	c #FBCC1A",
"u 	c #FACC1B",
"v 	c #FACC1A",
"w 	c #FBCB1B",
"x 	c #FAC81A",
"y 	c #FBC819",
"z 	c #FAC71A",
"A 	c #FAC719",
"B 	c #FAC61A",
"C 	c #FAC619",
"D 	c #FAC51A",
"E 	c #FAC519",
"F 	c #FAC41A",
"G 	c #FAC419",
"H 	c #F9C419",
"I 	c #FAC31A",
"J 	c #FAC319",
"K 	c #FAC019",
"L 	c #F9C018",
"M 	c #F9BF19",
"N 	c #FABF18",
"O 	c #FABF19",
"P 	c #F9BE18",
"Q 	c #FABE18",
"R 	c #FABD19",
"S 	c #FABD18",
"T 	c #F9BD18",
"U 	c #F9BC18",
"V 	c #F9BB18",
"W 	c #F9BA18",
"X 	c #F8B817",
"Y 	c #F9B718",
"Z 	c #F9B717",
"` 	c #F8B617",
" .	c #F9B617",
"..	c #F9B518",
"+.	c #F8B517",
"@.	c #F9B517",
"#.	c #F8B417",
"$.	c #F8B317",
"%.	c #F8B216",
"&.	c #F8B217",
"*.	c #F8AF16",
"=.	c #F8AF17",
"-.	c #F8AE16",
";.	c #F7AD16",
">.	c #F8AD16",
",.	c #F8AD15",
"'.	c #F7AC15",
").	c #F8AB15",
"!.	c #F7AB16",
"~.	c #F8AB16",
"{.	c #F7AA16",
"].	c #F7A916",
"^.	c #F7A715",
"/.	c #F7A615",
"(.	c #F7A515",
"_.	c #F7A614",
":.	c #F7A514",
"<.	c #F6A415",
"[.	c #F7A414",
"}.	c #F7A415",
"|.	c #F7A314",
"1.	c #F7A315",
"2.	c #F7A215",
"3.	c #F6A214",
"4.	c #F7A214",
"5.	c #F7A114",
"6.	c #F79F13",
"7.	c #F69E14",
"8.	c #F69E13",
"9.	c #F69D13",
"0.	c #F69D14",
"a.	c #F69C14",
"b.	c #F69B13",
"c.	c #F69B14",
"d.	c #F69A13",
"e.	c #F59A13",
"f.	c #F59912",
"g.	c #F59612",
"h.	c #F69613",
"i.	c #F59613",
"j.	c #F69612",
"k.	c #F59513",
"l.	c #F69512",
"m.	c #F59412",
"n.	c #F59312",
"o.	c #F59212",
"p.	c #F59112",
"q.	c #F59111",
"r.	c #F59011",
"s.	c #F58E11",
"t.	c #F58D11",
"u.	c #F48E12",
"v.	c #F48D11",
"w.	c #F48C11",
"x.	c #F48B11",
"y.	c #F48C10",
"z.	c #F58B11",
"A.	c #F48A11",
"B.	c #F48A10",
"C.	c #F58A11",
"D.	c #F48910",
"E.	c #F48911",
"F.	c #F48811",
"G.	c #F38510",
"H.	c #F48510",
"I.	c #F38410",
"J.	c #F48410",
"K.	c #F48310",
"L.	c #F38310",
"M.	c #F4830F",
"N.	c #F3820F",
"O.	c #F48210",
"P.	c #F38110",
"Q.	c #F3810F",
"R.	c #F3800F",
"S.	c #F48110",
"T.	c #F37D0F",
"U.	c #F37C0F",
"V.	c #F37B0E",
"W.	c #F37B0F",
"X.	c #F27B0E",
"Y.	c #F37A0E",
"Z.	c #F37A0F",
"`.	c #F3790E",
" +	c #F3790F",
".+	c #F3780E",
"++	c #F2780E",
"@+	c #F3750E",
"#+	c #F2740D",
"$+	c #F2740E",
"%+	c #F2730E",
"&+	c #F2730D",
"*+	c #F2720E",
"=+	c #F2720D",
"-+	c #F1720D",
";+	c #F2710D",
">+	c #F2700D",
",+	c #F1710D",
"'+	c #F26F0C",
")+	c #F16F0D",
"!+	c #F16D0C",
"~+	c #F16C0C",
"{+	c #F26C0C",
"]+	c #F16B0C",
"^+	c #F16B0D",
"/+	c #F26B0C",
"(+	c #F16A0C",
"_+	c #F16A0B",
":+	c #F1690C",
"<+	c #F1680C",
"[+	c #F0680B",
"}+	c #F0670B",
"|+	c #F1670B",
"1+	c #F0640C",
"2+	c #F0640B",
"3+	c #F0630B",
"4+	c #F0620B",
"5+	c #F1620A",
"6+	c #F1620B",
"7+	c #F0610B",
"8+	c #F0610A",
"9+	c #F0600A",
"0+	c #F0600B",
"a+	c #F05F0A",
"b+	c #F05E0B",
"c+	c #EF5B0A",
"d+	c #EF5B09",
"e+	c #F05B0A",
"f+	c #EF5A09",
"g+	c #F05A0A",
"h+	c #F05909",
"i+	c #EF5909",
"j+	c #EF590A",
"k+	c #EF580A",
"l+	c #F05809",
"m+	c #EF5809",
"n+	c #EF5709",
"o+	c #F05709",
"p+	c #F05609",
"q+	c #EF5609",
". . . . . . . . . . . . . . . . . . . . ",
"+ @ # @ @ $ % % % % & & * & = - - - ; - ",
"> , ' , ) ! ! ~ { ] ^ ^ / ( ( _ : _ : < ",
"[ } | [ 1 2 3 4 5 6 4 6 7 7 8 9 0 9 a 0 ",
"b b c d c e e e f e g f h i h h j j j k ",
"l m l l l n n n o o p q r s t u v w u v ",
"x x y x z z A B B C B D E F G H G G I J ",
"K L M M N O P Q P R S T T U U V U U W V ",
"X Y Z Y `  .` `  ...+.@.#.#.#.$.$.%.&.&.",
"*.*.=.-.-.-.;.;.>.,.;.>.'.).!.~.~.{.{.].",
"^.^././.(._.:.:.(.<.[.}.}.|.1.2.3.4.5.5.",
"6.7.8.8.7.9.9.0.9.a.b.b.c.d.e.d.d.d.e.f.",
"g.h.i.j.k.l.m.m.n.m.n.n.n.n.o.o.p.q.p.r.",
"s.t.u.t.v.v.w.x.y.z.A.B.B.B.C.D.E.E.D.F.",
"G.H.G.I.G.J.K.I.L.L.M.N.O.P.Q.Q.Q.R.S.R.",
"T.U.T.U.U.V.W.X.Y.Y.Y.Z.`.`. +.+`..+++++",
"@+#+$+$+$+%+&+&+*+=+=+-+;+>+,+;+>+>+'+)+",
"!+~+{+]+^+^+/+]+(+(+(+_+:+<+:+<+[+}+}+|+",
"1+2+3+3+3+4+3+5+6+7+8+9+8+0+0+9+a+a+a+b+",
"c+d+e+f+e+g+h+i+j+i+j+k+l+m+n+o+n+p+n+q+"};
