/* XPM */
static char * min1_xpm[] = {
"20 20 53 1",
" 	c None",
".	c #FFF721",
"+	c #000000",
"@	c #8A8A8A",
"#	c #606060",
"$	c #808080",
"%	c #FFF221",
"&	c #8D8D8D",
"*	c #646464",
"=	c #636363",
"-	c #878787",
";	c #FDE41E",
">	c #8E8E8E",
",	c #656565",
"'	c #FCDC1D",
")	c #8C8C8C",
"!	c #626262",
"~	c #868686",
"{	c #FCD41C",
"]	c #848484",
"^	c #5D5D5D",
"/	c #828282",
"(	c #5B5B5B",
"_	c #585858",
":	c #7E7E7E",
"<	c #565656",
"[	c #7D7D7D",
"}	c #767676",
"|	c #545454",
"1	c #535353",
"2	c #7B7B7B",
"3	c #6F6F6F",
"4	c #515151",
"5	c #797979",
"6	c #676767",
"7	c #4E4E4E",
"8	c #4F4F4F",
"9	c #616161",
"0	c #4C4C4C",
"a	c #757575",
"b	c #5A5A5A",
"c	c #4A4A4A",
"d	c #737373",
"e	c #474747",
"f	c #4D4D4D",
"g	c #444444",
"h	c #454545",
"i	c #575757",
"j	c #4B4B4B",
"k	c #494949",
"l	c #5C5C5C",
"m	c #525252",
"n	c #787878",
".........+@###+$####",
"%%%%%%%%%+&**=+-=*==",
";;;;;;;;+>,,,,+-*,**",
"''++++++)!!!!!+~!!!!",
"{+@@@@@@######+]####",
"+~^^^^^^^^^^^^^+/^^^",
"+]((((((((((((((+$((",
"+$_______________+:_",
"+:<<<<<<<<<<<<<<+[<<",
"+}|||11|1||||1|+2|||",
"+3444444444444+54444",
"+678777777777+}77777",
"+90000000000+a000000",
"+bccccccccccc+dccccc",
"+|eeeeee++++++!eeeee",
"+fggggg+______gggggg",
"+chhhhh+ihhhhhhhhhhh",
"+jkkkkk+lkkkkkkkkkkk",
"+k00000+900000000000",
"+mbbbbb+nbbbbbbbbbbb"};
