/* XPM */
static char * min2a_xpm[] = {
"20 20 64 1",
" 	c None",
".	c #FFF721",
"+	c #000000",
"@	c #A8A8A8",
"#	c #898989",
"$	c #A4A4A4",
"%	c #FFF221",
"&	c #ADADAD",
"*	c #909090",
"=	c #8F8F8F",
"-	c #FDE41E",
";	c #B0B0B0",
">	c #949494",
",	c #ABABAB",
"'	c #939393",
")	c #FCDC1D",
"!	c #AEAEAE",
"~	c #919191",
"{	c #AAAAAA",
"]	c #FCD41C",
"^	c #ACACAC",
"/	c #8E8E8E",
"(	c #A7A7A7",
"_	c #FFFFFF",
":	c #A3A3A3",
"<	c #858585",
"[	c #848484",
"}	c #A1A1A1",
"|	c #9E9E9E",
"1	c #808080",
"2	c #9D9D9D",
"3	c #9B9B9B",
"4	c #7C7C7C",
"5	c #DEDEDE",
"6	c #9A9A9A",
"7	c #787878",
"8	c #C7C7C7",
"9	c #979797",
"0	c #8C8C8C",
"a	c #747474",
"b	c #B9B9B9",
"c	c #757575",
"d	c #707070",
"e	c #717171",
"f	c #B4B4B4",
"g	c #7F7F7F",
"h	c #6D6D6D",
"i	c #BABABA",
"j	c #6B6B6B",
"k	c #6A6A6A",
"l	c #D1D1D1",
"m	c #D0D0D0",
"n	c #8D8D8D",
"o	c #727272",
"p	c #676767",
"q	c #8A8A8A",
"r	c #6E6E6E",
"s	c #868686",
"t	c #737373",
"u	c #767676",
"v	c #797979",
"w	c #818181",
"x	c #878787",
"y	c #A2A2A2",
".........+@###+$####",
"%%%%%%%%%+&*==+@=*==",
"--------+;>>>>+,'>''",
"))++++++!~~~~*+{*~~~",
"]+^^^^^^//////+@////",
"+(###########+_+$###",
"+:<<[[[[[[[[+___+}<[",
"+|111111111+_____+21",
"+3444444+4+55555+644",
"+'77777+8+88888+9777",
"+0aaaaa+bbbbbb+>aaca",
"+[deddd+fffff+~ddddd",
"+ghhhhh+iibb+/hhhhhh",
"+7jkjjj+lmllm+njkjjj",
"+opppppp++++++qppppp",
"+rppppp+sssssspppppp",
"+rkjjkk+skkjkkkkkjkj",
"+teeeee+=eeeeeeeeeee",
"+uv777v+9vv7v7vv777v",
"+wxxxxx+yxxxxxxxxxxx"};
