/* XPM */
static char * min2_xpm[] = {
"20 20 56 1",
" 	c None",
".	c #FFF721",
"+	c #000000",
"@	c #A8A8A8",
"#	c #898989",
"$	c #A4A4A4",
"%	c #FFF221",
"&	c #ADADAD",
"*	c #909090",
"=	c #8F8F8F",
"-	c #FDE41E",
";	c #B0B0B0",
">	c #949494",
",	c #ABABAB",
"'	c #939393",
")	c #FCDC1D",
"!	c #AEAEAE",
"~	c #919191",
"{	c #AAAAAA",
"]	c #FCD41C",
"^	c #ACACAC",
"/	c #8E8E8E",
"(	c #A7A7A7",
"_	c #A3A3A3",
":	c #858585",
"<	c #848484",
"[	c #A1A1A1",
"}	c #9E9E9E",
"|	c #808080",
"1	c #9D9D9D",
"2	c #9B9B9B",
"3	c #7C7C7C",
"4	c #9A9A9A",
"5	c #787878",
"6	c #979797",
"7	c #8C8C8C",
"8	c #747474",
"9	c #757575",
"0	c #707070",
"a	c #717171",
"b	c #7F7F7F",
"c	c #6D6D6D",
"d	c #6B6B6B",
"e	c #6A6A6A",
"f	c #8D8D8D",
"g	c #727272",
"h	c #676767",
"i	c #8A8A8A",
"j	c #6E6E6E",
"k	c #868686",
"l	c #737373",
"m	c #767676",
"n	c #797979",
"o	c #818181",
"p	c #878787",
"q	c #A2A2A2",
".........+@###+$####",
"%%%%%%%%%+&*==+@=*==",
"--------+;>>>>+,'>''",
"))++++++!~~~~*+{*~~~",
"]+^^^^^^//////+@////",
"+(#############+$###",
"+_::<<<<<<<<<:<:+[:<",
"+}|||||||||||||||+1|",
"+233333333333333+433",
"+'5555555555555+6555",
"+7888888898888+>8898",
"+<0a000000000+~00000",
"+bcccccccccc+/cccccc",
"+5dedddededed+fdeddd",
"+ghhhhhh++++++ihhhhh",
"+jhhhhh+kkkkkkhhhhhh",
"+jeddee+keedeeeeeded",
"+laaaaa+=aaaaaaaaaaa",
"+mn555n+6nn5n5nn555n",
"+oppppp+qppppppppppp"};
