/* XPM */
static char * stick1a_xpm[] = {
"20 20 73 1",
" 	c None",
".	c #606060",
"+	c #787878",
"@	c #000000",
"#	c #7C7C7C",
"$	c #FFF721",
"%	c #636363",
"&	c #646464",
"*	c #7A7A7A",
"=	c #8D8D8D",
"-	c #FFF221",
";	c #656565",
">	c #898989",
",	c #8E8E8E",
"'	c #FDE41E",
")	c #626262",
"!	c #888888",
"~	c #8C8C8C",
"{	c #FCDC1D",
"]	c #868686",
"^	c #8A8A8A",
"/	c #FCD41C",
"(	c #5D5D5D",
"_	c #848484",
":	c #5B5B5B",
"<	c #828282",
"[	c #FFFFFF",
"}	c #585858",
"|	c #808080",
"1	c #565656",
"2	c #7F7F7F",
"3	c #7E7E7E",
"4	c #545454",
"5	c #7D7D7D",
"6	c #EDEDED",
"7	c #EEEEEE",
"8	c #767676",
"9	c #515151",
"0	c #7B7B7B",
"a	c #D8D8D8",
"b	c #D9D9D9",
"c	c #6F6F6F",
"d	c #4E4E4E",
"e	c #797979",
"f	c #C0C0C0",
"g	c #BFBFBF",
"h	c #4F4F4F",
"i	c #676767",
"j	c #4C4C4C",
"k	c #777777",
"l	c #A2A2A2",
"m	c #A3A3A3",
"n	c #616161",
"o	c #4A4A4A",
"p	c #9B9B9B",
"q	c #9A9A9A",
"r	c #5A5A5A",
"s	c #474747",
"t	c #737373",
"u	c #9E9E9E",
"v	c #9D9D9D",
"w	c #444444",
"x	c #717171",
"y	c #AEAEAE",
"z	c #4D4D4D",
"A	c #454545",
"B	c #727272",
"C	c #494949",
"D	c #696969",
"E	c #757575",
"F	c #4B4B4B",
"G	c #5E5E5E",
"H	c #525252",
".....+@..#@$$$$$$$$$",
"%%%&%*@&&=@---------",
"&&&;&>@;;;,@''''''''",
")))))!@))))~@@@@@@{{",
".....]@.....^^^^^^@/",
"(((((_@@@@@(((((((]@",
":::::<@[[[[@::::::_@",
"}}}}}|@[[[[[@}}}}}|@",
"111112@[[[[[[@11113@",
"444445@6676666@4448@",
"999990@aaaabaaa@99c@",
"ddddde@fggfgfgg@hdi@",
"jjjjjk@lmllmllm@jjn@",
"oooooo8@pqppppp@oor@",
"ssssssst@uvvvvv@ss4@",
"wwwwwwwwx@yyyy@xwwz@",
"AAAAAAAAB@@@@@BAAAo@",
"CCCCCCCCD@EEEECCCCF@",
"jjjjjjjj1@jjjjjjjjC@",
"rrrrrrrrG@rrrrrrrrH@"};
