/* XPM */
static char * stick1_xpm[] = {
"20 20 60 1",
" 	c None",
".	c #606060",
"+	c #787878",
"@	c #000000",
"#	c #7C7C7C",
"$	c #FFF721",
"%	c #636363",
"&	c #646464",
"*	c #7A7A7A",
"=	c #8D8D8D",
"-	c #FFF221",
";	c #656565",
">	c #898989",
",	c #8E8E8E",
"'	c #FDE41E",
")	c #626262",
"!	c #888888",
"~	c #8C8C8C",
"{	c #FCDC1D",
"]	c #868686",
"^	c #8A8A8A",
"/	c #FCD41C",
"(	c #5D5D5D",
"_	c #848484",
":	c #5B5B5B",
"<	c #828282",
"[	c #585858",
"}	c #808080",
"|	c #565656",
"1	c #7F7F7F",
"2	c #7E7E7E",
"3	c #545454",
"4	c #7D7D7D",
"5	c #535353",
"6	c #767676",
"7	c #515151",
"8	c #7B7B7B",
"9	c #6F6F6F",
"0	c #4E4E4E",
"a	c #797979",
"b	c #4F4F4F",
"c	c #676767",
"d	c #4C4C4C",
"e	c #777777",
"f	c #616161",
"g	c #4A4A4A",
"h	c #5A5A5A",
"i	c #474747",
"j	c #737373",
"k	c #444444",
"l	c #717171",
"m	c #4D4D4D",
"n	c #454545",
"o	c #727272",
"p	c #494949",
"q	c #696969",
"r	c #757575",
"s	c #4B4B4B",
"t	c #5E5E5E",
"u	c #525252",
".....+@..#@$$$$$$$$$",
"%%%&%*@&&=@---------",
"&&&;&>@;;;,@''''''''",
")))))!@))))~@@@@@@{{",
".....]@.....^^^^^^@/",
"(((((_@@@@@(((((((]@",
":::::<@<<<<@::::::_@",
"[[[[[}@[[[[}@[[[[[}@",
"|||||1@|||||1@||||2@",
"333334@333353#@3336@",
"777778@77777778@779@",
"00000a@0000000a@b0c@",
"ddddde@ddddddde@ddf@",
"gggggg6@gggggg6@ggh@",
"iiiiiiij@iiiiij@ii3@",
"kkkkkkkkl@kkkk@lkkm@",
"nnnnnnnno@@@@@onnng@",
"ppppppppq@rrrrpppps@",
"dddddddd|@ddddddddp@",
"hhhhhhhht@hhhhhhhhu@"};
