/* XPM */
static char * bar_xpm[] = {
"20 20 261 2",
"  	c None",
". 	c #D63328",
"+ 	c #D73327",
"@ 	c #D73328",
"# 	c #D83327",
"$ 	c #D83328",
"% 	c #D93428",
"& 	c #D93328",
"* 	c #D93327",
"= 	c #DA3328",
"- 	c #DA3329",
"; 	c #DB3428",
"> 	c #DB3328",
", 	c #DC3428",
"' 	c #DC3429",
") 	c #CE3126",
"! 	c #CE3025",
"~ 	c #CE3026",
"{ 	c #CF3025",
"] 	c #CF3126",
"^ 	c #D03125",
"/ 	c #D03126",
"( 	c #D13126",
"_ 	c #D23127",
": 	c #D13127",
"< 	c #D23226",
"[ 	c #D33227",
"} 	c #D33226",
"| 	c #D43226",
"1 	c #C52E23",
"2 	c #C52E24",
"3 	c #C62F24",
"4 	c #C62F23",
"5 	c #C72E23",
"6 	c #C72F23",
"7 	c #C82F24",
"8 	c #C82F23",
"9 	c #C92F24",
"0 	c #CA2F24",
"a 	c #CA3025",
"b 	c #CB2F24",
"c 	c #CB3025",
"d 	c #BC2C21",
"e 	c #BD2C21",
"f 	c #BD2C22",
"g 	c #BD2D22",
"h 	c #BE2C21",
"i 	c #BE2D21",
"j 	c #BE2D22",
"k 	c #BF2D22",
"l 	c #C02C22",
"m 	c #BF2C22",
"n 	c #C02D22",
"o 	c #C12D23",
"p 	c #C12D22",
"q 	c #C22D22",
"r 	c #C22E22",
"s 	c #B42A1F",
"t 	c #B42920",
"u 	c #B52A20",
"v 	c #B62A20",
"w 	c #B62B1F",
"x 	c #B72B1F",
"y 	c #B72A20",
"z 	c #B72B20",
"A 	c #B82A20",
"B 	c #B82B20",
"C 	c #B92B20",
"D 	c #BA2B21",
"E 	c #AB281D",
"F 	c #AC271D",
"G 	c #AC281D",
"H 	c #AD271D",
"I 	c #AD281D",
"J 	c #AE281E",
"K 	c #AE281D",
"L 	c #AF281E",
"M 	c #AF291D",
"N 	c #AF291E",
"O 	c #B0291E",
"P 	c #B1291E",
"Q 	c #B1291F",
"R 	c #A3251B",
"S 	c #A4261B",
"T 	c #A4251B",
"U 	c #A4261C",
"V 	c #A5261B",
"W 	c #A5261C",
"X 	c #A6261B",
"Y 	c #A6261C",
"Z 	c #A7271C",
"` 	c #A7261C",
" .	c #A8261C",
"..	c #A8271C",
"+.	c #A8271D",
"@.	c #A9271C",
"#.	c #9A2319",
"$.	c #9A2419",
"%.	c #9B2419",
"&.	c #9B2319",
"*.	c #9C231A",
"=.	c #9C241A",
"-.	c #9D241A",
";.	c #9D2419",
">.	c #9E241A",
",.	c #9F241A",
"'.	c #9F241B",
").	c #A0251B",
"!.	c #922117",
"~.	c #932117",
"{.	c #932118",
"].	c #942217",
"^.	c #952217",
"/.	c #952117",
"(.	c #952118",
"_.	c #952218",
":.	c #962218",
"<.	c #972218",
"[.	c #982318",
"}.	c #891F15",
"|.	c #8A1F15",
"1.	c #8A2015",
"2.	c #8B1F15",
"3.	c #8C1F16",
"4.	c #8C2016",
"5.	c #8C1F15",
"6.	c #8D1F15",
"7.	c #8D1F16",
"8.	c #8E2016",
"9.	c #8D2016",
"0.	c #8F2016",
"a.	c #801D13",
"b.	c #801C13",
"c.	c #811D13",
"d.	c #811C13",
"e.	c #821D14",
"f.	c #821D13",
"g.	c #831D13",
"h.	c #831D14",
"i.	c #841D13",
"j.	c #851E14",
"k.	c #851D14",
"l.	c #861E14",
"m.	c #871E14",
"n.	c #781A10",
"o.	c #781A11",
"p.	c #781B11",
"q.	c #791A11",
"r.	c #791B11",
"s.	c #7A1A11",
"t.	c #7A1B12",
"u.	c #7A1B11",
"v.	c #7C1B12",
"w.	c #7B1B11",
"x.	c #7B1C12",
"y.	c #7C1B11",
"z.	c #7D1B12",
"A.	c #7D1C12",
"B.	c #7E1C12",
"C.	c #6F180F",
"D.	c #70180E",
"E.	c #70180F",
"F.	c #71190F",
"G.	c #70190F",
"H.	c #721910",
"I.	c #73190F",
"J.	c #731910",
"K.	c #74190F",
"L.	c #741910",
"M.	c #751910",
"N.	c #751A10",
"O.	c #66160D",
"P.	c #67160C",
"Q.	c #67160D",
"R.	c #68160D",
"S.	c #69160D",
"T.	c #69160E",
"U.	c #69170E",
"V.	c #6A170E",
"W.	c #6B160E",
"X.	c #6B170E",
"Y.	c #6B170D",
"Z.	c #6C170E",
"`.	c #6D180E",
" +	c #5E130A",
".+	c #5E140B",
"++	c #5F140B",
"@+	c #60140B",
"#+	c #5F140C",
"$+	c #61150B",
"%+	c #61140B",
"&+	c #62150C",
"*+	c #62150B",
"=+	c #62140B",
"-+	c #63150B",
";+	c #63140C",
">+	c #64150C",
",+	c #551108",
"'+	c #561209",
")+	c #561109",
"!+	c #571109",
"~+	c #571209",
"{+	c #581209",
"]+	c #58120A",
"^+	c #591209",
"/+	c #59120A",
"(+	c #5A130A",
"_+	c #5A1309",
":+	c #5B130A",
"<+	c #5B120A",
"[+	c #4D0F07",
"}+	c #4D0F06",
"|+	c #4E0F06",
"1+	c #4E0F07",
"2+	c #4E1007",
"3+	c #4F0F07",
"4+	c #4F1007",
"5+	c #501007",
"6+	c #501008",
"7+	c #511107",
"8+	c #511007",
"9+	c #511108",
"0+	c #521108",
"a+	c #531008",
"b+	c #531108",
"c+	c #440D04",
"d+	c #450D05",
"e+	c #450E05",
"f+	c #460D05",
"g+	c #460E05",
"h+	c #470E05",
"i+	c #470D06",
"j+	c #480E05",
"k+	c #490E05",
"l+	c #490E06",
"m+	c #4B0E06",
"n+	c #3C0B02",
"o+	c #3C0A03",
"p+	c #3C0B03",
"q+	c #3D0B02",
"r+	c #3D0C03",
"s+	c #3E0B03",
"t+	c #3F0B03",
"u+	c #3F0C03",
"v+	c #3F0C04",
"w+	c #400B03",
"x+	c #400C03",
"y+	c #400C04",
"z+	c #410C04",
"A+	c #330801",
"B+	c #330900",
"C+	c #340901",
"D+	c #350901",
"E+	c #360901",
"F+	c #360A02",
"G+	c #370902",
"H+	c #380902",
"I+	c #380A01",
"J+	c #380901",
"K+	c #380A02",
"L+	c #390A02",
". + @ + @ # $ % & * = = - ; ; > ; , , ' ",
") ! ~ ) { ] ^ / ^ / ( ( _ : < [ } [ | | ",
"1 2 3 4 5 6 6 6 7 8 9 7 9 9 0 0 a b b c ",
"d e e f g h h i j k l m n o p o p q q r ",
"s s t t u v u w x y y z A B B B C C D D ",
"E E F G H G I J K J J L M N O O O O P Q ",
"R R S T U T S V W W X Y Y Z ` `  ...+.@.",
"#.#.$.%.&.*.*.=.-.=.;.>.>.>.,.,.,.'.).).",
"!.!.!.!.~.~.{.~.].^./.(.^._.:.:.<.<.<.[.",
"}.}.|.|.|.1.2.2.3.4.5.5.6.7.8.9.8.8.0.0.",
"a.b.c.d.c.c.e.f.g.g.h.i.i.i.j.k.j.j.l.m.",
"n.o.p.q.q.r.s.t.u.u.u.v.w.x.v.y.z.z.A.B.",
"C.D.D.E.E.F.G.F.F.H.I.I.J.I.K.L.K.M.M.N.",
"O.P.Q.Q.R.R.S.R.T.U.U.V.W.X.X.Y.Z.Z.`.`.",
" + +.+.+++@+#+@+$+%+%+%+&+*+=+-+;+>+>+>+",
",+'+)+'+'+!+~+~+{+]+^+/+/+(+/+(+_+:+<+:+",
"[+}+|+1+2+2+3+2+4+5+5+6+5+6+7+8+9+0+a+b+",
"c+c+d+d+d+e+f+f+g+h+h+i+j+j+k+l+l+l+l+m+",
"n+o+n+p+n+q+r+s+r+t+u+v+w+x+v+y+z+z+z+z+",
"A+B+B+C+C+C+D+D+D+E+F+E+F+G+H+I+I+J+K+L+"};
