/* XPM */
static char * bar1_xpm[] = {
"20 20 160 2",
"  	c None",
". 	c #3A6D9C",
"+ 	c #3A6E9C",
"@ 	c #396D9C",
"# 	c #3A6E9D",
"$ 	c #3A6D9D",
"% 	c #386A98",
"& 	c #386A97",
"* 	c #386997",
"= 	c #376997",
"- 	c #376A98",
"; 	c #376A97",
"> 	c #376996",
", 	c #386996",
"' 	c #356490",
") 	c #34658F",
"! 	c #34648F",
"~ 	c #346490",
"{ 	c #35648F",
"] 	c #35648E",
"^ 	c #34638F",
"/ 	c #34648E",
"( 	c #315F88",
"_ 	c #325F88",
": 	c #325F87",
"< 	c #315F87",
"[ 	c #325E87",
"} 	c #315E87",
"| 	c #325E88",
"1 	c #325E86",
"2 	c #315E86",
"3 	c #2F5981",
"4 	c #2E5A80",
"5 	c #2E5A81",
"6 	c #2F5980",
"7 	c #2E5980",
"8 	c #2E597F",
"9 	c #2F587F",
"0 	c #2C5479",
"a 	c #2B5478",
"b 	c #2B5479",
"c 	c #2C5478",
"d 	c #2B5379",
"e 	c #2C5378",
"f 	c #2B5378",
"g 	c #2C5377",
"h 	c #2B5377",
"i 	c #294F71",
"j 	c #294E71",
"k 	c #284F71",
"l 	c #284E71",
"m 	c #294E70",
"n 	c #284E70",
"o 	c #284D70",
"p 	c #284E6F",
"q 	c #264969",
"r 	c #26496A",
"s 	c #254969",
"t 	c #264869",
"u 	c #264968",
"v 	c #254868",
"w 	c #264868",
"x 	c #234462",
"y 	c #224361",
"z 	c #234361",
"A 	c #234362",
"B 	c #234461",
"C 	c #224260",
"D 	c #224360",
"E 	c #203F5A",
"F 	c #203E5A",
"G 	c #1F3E5A",
"H 	c #203E59",
"I 	c #1F3E59",
"J 	c #203D59",
"K 	c #1F3D59",
"L 	c #203D58",
"M 	c #1D3853",
"N 	c #1C3953",
"O 	c #1D3953",
"P 	c #1D3952",
"Q 	c #1C3852",
"R 	c #1D3852",
"S 	c #1C3851",
"T 	c #1D3851",
"U 	c #1C3751",
"V 	c #1A334B",
"W 	c #1A344A",
"X 	c #1A334A",
"Y 	c #1A344B",
"Z 	c #19334B",
"` 	c #19334A",
" .	c #1A324A",
"..	c #19324A",
"+.	c #1A3249",
"@.	c #193249",
"#.	c #193349",
"$.	c #172E43",
"%.	c #162E43",
"&.	c #162D43",
"*.	c #172E42",
"=.	c #162D42",
"-.	c #14283C",
";.	c #14283B",
">.	c #14293C",
",.	c #14293B",
"'.	c #13283B",
").	c #14273B",
"!.	c #13283A",
"~.	c #14273A",
"{.	c #14283A",
"].	c #112334",
"^.	c #112333",
"/.	c #112234",
"(.	c #102334",
"_.	c #112233",
":.	c #102333",
"<.	c #102233",
"[.	c #112232",
"}.	c #0E1E2C",
"|.	c #0E1E2D",
"1.	c #0E1D2B",
"2.	c #0D1E2B",
"3.	c #0E1D2C",
"4.	c #0D1D2B",
"5.	c #0D1D2C",
"6.	c #0E1C2B",
"7.	c #0D1C2B",
"8.	c #0D1D2A",
"9.	c #0B1825",
"0.	c #0B1824",
"a.	c #0A1824",
"b.	c #0A1823",
"c.	c #0B1723",
"d.	c #0B1823",
"e.	c #0A1724",
"f.	c #0A1723",
"g.	c #08121D",
"h.	c #08131D",
"i.	c #08121C",
"j.	c #08131C",
"k.	c #07131C",
"l.	c #07121C",
"m.	c #07121B",
"n.	c #08121B",
"o.	c #08111B",
"p.	c #050D15",
"q.	c #050E15",
"r.	c #040D15",
"s.	c #050C14",
"t.	c #050C15",
"u.	c #040C14",
"v.	c #050C13",
"w.	c #02070D",
"x.	c #02080E",
"y.	c #02080D",
"z.	c #02070C",
"A.	c #01070D",
"B.	c #01070C",
"C.	c #01060C",
". + . . @ # + $ @ . @ $ @ + @ . @ + @ @ ",
"% & * % = - ; * ; * & ; > = , > > > > > ",
"' ) ! ' ) ' ~ { { { { ! ! { ] ! ^ / / ! ",
"( _ _ : _ < < [ _ ( : [ } [ | } 1 } 2 } ",
"3 4 3 5 6 4 7 7 6 6 6 7 8 7 8 7 7 8 9 8 ",
"0 0 a b a a c d c e f e f f g f a h h c ",
"i j k l j m i j l m l n j m n n n o n p ",
"q r r s q t q q t s q u v t s s v v w w ",
"x x x y z z A x B z z y B z y y z C D z ",
"E F G F F F H I G F G G J G I K H J L K ",
"M N O P P P Q R R Q S Q Q Q T S S R S U ",
"V W V X Y Z V V X Z X ` `  . .X ..+.@.#.",
"$.$.$.$.%.&.$.*.%.&.&.%.=.=.=.=.=.=.=.=.",
"-.-.;.>.;.,.'.'.;.;.;.;.).!.'.~.~.'.{.!.",
"].^.^.].^.]./.^.(._.:._.<.<.:._.:._._.[.",
"}.|.|.}.1.2.3.3.3.4.4.5.1.4.4.6.4.1.7.8.",
"9.9.0.9.a.0.0.b.0.a.c.d.d.e.c.f.e.c.c.c.",
"g.h.i.i.i.i.g.j.i.k.i.i.i.l.l.l.m.n.i.o.",
"p.p.q.r.p.p.p.p.s.t.p.r.p.p.s.s.u.s.v.u.",
"w.x.w.y.y.y.y.w.w.z.A.y.z.B.w.z.C.w.z.B."};
