/* XPM */
static char * stick1_xpm[] = {
"20 20 59 1",
" 	c None",
".	c #3A6D9C",
"+	c #787878",
"@	c #000000",
"#	c #7C7C7C",
"$	c #386A97",
"%	c #7A7A7A",
"&	c #8D8D8D",
"*	c #34658F",
"=	c #898989",
"-	c #8E8E8E",
";	c #325F88",
">	c #888888",
",	c #8C8C8C",
"'	c #2F5981",
")	c #868686",
"!	c #8A8A8A",
"~	c #2C5479",
"{	c #848484",
"]	c #294F71",
"^	c #828282",
"/	c #26496A",
"(	c #808080",
"_	c #234462",
":	c #7F7F7F",
"<	c #7E7E7E",
"[	c #203E5A",
"}	c #7D7D7D",
"|	c #767676",
"1	c #1D3853",
"2	c #7B7B7B",
"3	c #6F6F6F",
"4	c #1A344A",
"5	c #797979",
"6	c #676767",
"7	c #172E43",
"8	c #777777",
"9	c #616161",
"0	c #14283B",
"a	c #5A5A5A",
"b	c #112333",
"c	c #737373",
"d	c #545454",
"e	c #0E1E2D",
"f	c #717171",
"g	c #4D4D4D",
"h	c #0B1825",
"i	c #727272",
"j	c #4A4A4A",
"k	c #08131D",
"l	c #696969",
"m	c #757575",
"n	c #4B4B4B",
"o	c #050D15",
"p	c #565656",
"q	c #494949",
"r	c #02080D",
"s	c #5E5E5E",
"t	c #525252",
".....+@..#@.........",
"$$$$$%@$$&@$$$$$$$$$",
"*****=@***-@********",
";;;;;>@;;;;,@@@@@@;;",
"''''')@'''''!!!!!!@'",
"~~~~~{@@@@@~~~~~~~)@",
"]]]]]^@^^^^@]]]]]]{@",
"/////(@////(@/////(@",
"_____:@_____:@____<@",
"[[[[[}@[[[[[[#@[[[|@",
"111112@11111112@113@",
"444445@44444445@446@",
"777778@77777778@779@",
"000000|@000000|@00a@",
"bbbbbbbc@bbbbbc@bbd@",
"eeeeeeeef@eeee@feeg@",
"hhhhhhhhi@@@@@ihhhj@",
"kkkkkkkkl@mmmmkkkkn@",
"oooooooop@ooooooooq@",
"rrrrrrrrs@rrrrrrrrt@"};
